<?xml version="1.0" standalone="no"?><!DOCTYPE svg PUBLIC "-//W3C//DTD SVG 1.1//EN" "http://www.w3.org/Graphics/SVG/1.1/DTD/svg11.dtd"><svg t="1514622223885" class="icon" style="" viewBox="0 0 1024 1024" version="1.1" xmlns="http://www.w3.org/2000/svg" p-id="13584" xmlns:xlink="http://www.w3.org/1999/xlink" width="20" height="20"><defs><style type="text/css"></style></defs><path d="M511.891 50.094c-255.033 0-461.799 206.766-461.799 461.799s206.766 461.799 461.799 461.799 461.799-206.766 461.799-461.799c0.219-255.033-206.548-461.799-461.799-461.799zM621.689 722.787c13.049 13.049 13.049 34.134 0 47.183-6.522 6.522-15.002 9.782-23.482 9.782-8.48 0-16.96-3.261-23.482-9.782l-238.074-238.074c-6.304-6.304-9.782-14.783-9.782-23.482 0-8.698 3.478-17.393 9.782-23.482l237.857-237.857c13.049-13.049 34.134-13.049 47.183 0s13.049 34.134 0 47.183l-214.156 214.156 214.156 214.375z" p-id="13585" fill="#38acf4"></path></svg>