<?xml version="1.0" standalone="no"?><!DOCTYPE svg PUBLIC "-//W3C//DTD SVG 1.1//EN" "http://www.w3.org/Graphics/SVG/1.1/DTD/svg11.dtd"><svg t="1514622260003" class="icon" style="" viewBox="0 0 1024 1024" version="1.1" xmlns="http://www.w3.org/2000/svg" p-id="13948" xmlns:xlink="http://www.w3.org/1999/xlink" width="20" height="20"><defs><style type="text/css"></style></defs><path d="M512 962.56c-249.324 0-450.56-202.208-450.56-450.56s202.24-450.56 450.56-450.56c248.361 0 450.56 202.208 450.56 450.56s-201.236 450.56-450.56 450.56zM671.027 487.444l-223.816-224.778c-6.861-6.861-15.698-9.83-24.545-9.83-0.136-0.002-0.299-0.004-0.461-0.003-18.984 0-34.376 15.392-34.376 34.376 0 9.608 3.942 18.295 10.296 24.533l200.279 200.248-199.27 197.304c-13.752 13.752-13.752 35.348 0 48.107 13.732 13.732 35.328 13.732 48.097 0l223.795-221.839c6.861-6.861 9.81-14.725 9.81-24.545 0-7.855-2.939-16.691-9.81-23.572z" p-id="13949" fill="#38acf4"></path></svg>