<?xml version="1.0" standalone="no"?><!DOCTYPE svg PUBLIC "-//W3C//DTD SVG 1.1//EN" "http://www.w3.org/Graphics/SVG/1.1/DTD/svg11.dtd"><svg t="1514622849790" class="icon" style="" viewBox="0 0 1024 1024" version="1.1" xmlns="http://www.w3.org/2000/svg" p-id="29842" xmlns:xlink="http://www.w3.org/1999/xlink" width="20" height="20"><defs><style type="text/css"></style></defs><path d="M512 1.8C229.8 1.8 1 230.6 1 512.8s228.8 511 511 511 511-228.8 511-511c-0.3-282.1-228.9-510.7-511-511zM231.7 353.9h397.9L598.1 325c-20.4-19.1-21.6-51.1-2.6-71.6 19-20.5 51-21.7 71.5-2.7L833.6 405c11.6 11.2 12 29.7 0.8 41.3-5.4 5.6-12.8 8.8-20.6 9H231.7c-27.8 3.4-53.1-16.8-56.5-44.6s16.5-53.1 44.3-56.4c4-0.5 8.1-0.5 12.2-0.4zM843.1 621c0 28-22.7 50.7-50.7 50.7H394.5l31 28.9c20.5 18.9 21.8 50.9 2.8 71.4-18.9 20.5-50.9 21.8-71.4 2.8L190.4 620.6c-11.7-11.1-12.1-29.6-0.9-41.3 5.4-5.6 12.8-8.9 20.6-9h582.2c28 0 50.7 22.6 50.7 50.6 0 0.1 0 0.1 0.1 0.1z" p-id="29843" data-spm-anchor-id="a313x.7781069.0.i28" class="selected" fill="#ffffff"></path></svg>