<svg xmlns="http://www.w3.org/2000/svg" xmlns:xlink="http://www.w3.org/1999/xlink" viewBox="0 0 45.67 22.66"><defs><style>.cls-1{fill:#fdffff;}.cls-2{fill:url(#未命名的渐变_98);}</style><linearGradient id="未命名的渐变_98" x2="19.34" y2="19.34" gradientUnits="userSpaceOnUse"><stop offset="0" stop-color="#25ffa8"/><stop offset="1" stop-color="#61e5ee"/></linearGradient></defs><title>资源 1</title><g id="图层_2" data-name="图层 2"><g id="图层_1-2" data-name="图层 1"><path class="cls-1" d="M12.26,13.7V11.23c0-.61-.32-1.16-.95-1.16a1.05,1.05,0,0,0-1,1.16V13.7H9.19V9.07h1.06l.08.56A1.34,1.34,0,0,1,11.55,9a1.38,1.38,0,0,1,1.37.86A1.67,1.67,0,0,1,14.47,9c1.31,0,2,.81,2,2.19V13.7H15.28V11.21c0-.61-.25-1.12-.87-1.12a1.05,1.05,0,0,0-1,1.14V13.7Z"/><path class="cls-1" d="M21.09,9.08h1.1V13.7H21.11L21,13a1.76,1.76,0,0,1-1.5.82,2.24,2.24,0,0,1-2.38-2.46A2.25,2.25,0,0,1,19.58,9,1.7,1.7,0,0,1,21,9.72Zm-2.77,2.31a1.32,1.32,0,0,0,1.37,1.41,1.4,1.4,0,0,0,0-2.8A1.32,1.32,0,0,0,18.31,11.39Z"/><path class="cls-1" d="M24.21,9.08l.08.53A1.36,1.36,0,0,1,25.6,9a1.75,1.75,0,0,1,1.19.44l-.52,1a1.14,1.14,0,0,0-.82-.3,1.07,1.07,0,0,0-1.15,1.17V13.7H23.15V9.08Z"/><path class="cls-1" d="M29.12,7.78V9.09H30.4v1H29.12v2a.57.57,0,0,0,.6.66,1.31,1.31,0,0,0,.55-.14l.32,1a2.56,2.56,0,0,1-.95.2A1.49,1.49,0,0,1,28,12.07v-2h-.86v-1H28V7.9Z"/><path class="cls-1" d="M32.23,11.8a1.23,1.23,0,0,0,1.38,1,1.91,1.91,0,0,0,1.24-.43l.73.72a2.84,2.84,0,0,1-2,.75A2.33,2.33,0,0,1,31,11.36,2.31,2.31,0,0,1,33.5,8.94c1.55,0,2.51,1,2.33,2.86Zm2.51-.95a1.06,1.06,0,0,0-1.2-.9,1.24,1.24,0,0,0-1.29.9Z"/><path class="cls-1" d="M40.69,13.11a2.38,2.38,0,0,1-1.78.73,2.29,2.29,0,0,1-2.46-2.45A2.29,2.29,0,0,1,38.91,9a2.19,2.19,0,0,1,1.67.68l-.72.76a1.4,1.4,0,0,0-.93-.37,1.3,1.3,0,0,0-1.33,1.37,1.26,1.26,0,0,0,1.31,1.35,1.39,1.39,0,0,0,1-.38Z"/><path class="cls-1" d="M42.34,7.14V9.71A1.71,1.71,0,0,1,43.78,9c1.31,0,1.89.89,1.89,2.25V13.7H44.53V11.28c0-.84-.44-1.2-1-1.2a1.18,1.18,0,0,0-1.14,1.27V13.7H41.19V7.14Z"/><path class="cls-2" d="M11.33,18.76a7.43,7.43,0,0,1-7.42-7.42V3.91h7.42a7.42,7.42,0,0,1,6.15,3.27h4.38A11.33,11.33,0,0,0,11.33,0H0V11.33a11.33,11.33,0,0,0,21.81,4.3H17.37A7.41,7.41,0,0,1,11.33,18.76Z"/></g></g></svg>