<svg xmlns="http://www.w3.org/2000/svg" xmlns:xlink="http://www.w3.org/1999/xlink" viewBox="0 0 45.67 22.66"><defs><style>.cls-1{fill:#fdffff;}.cls-2{fill:url(#未命名的渐变_98);}</style><linearGradient id="未命名的渐变_98" x2="19.34" y2="19.34" gradientUnits="userSpaceOnUse"><stop offset="0" stop-color="#25ffa8"/><stop offset="1" stop-color="#61e5ee"/></linearGradient></defs><title>资源 2</title><g id="图层_2" data-name="图层 2"><g id="图层_1-2" data-name="图层 1"><path class="cls-1" d="M12.26,13.7V11.23c0-.61-.32-1.16-.95-1.16a1.05,1.05,0,0,0-1,1.16V13.7H9.19V9.07h1.06l.08.56A1.34,1.34,0,0,1,11.55,9a1.38,1.38,0,0,1,1.37.86A1.67,1.67,0,0,1,14.47,9c1.31,0,2,.81,2,2.19V13.7H15.28V11.21c0-.61-.25-1.12-.87-1.12a1.05,1.05,0,0,0-1,1.14V13.7Z"/><path class="cls-1" d="M21.09,9.08h1.1V13.7H21.11L21,13a1.76,1.76,0,0,1-1.5.82,2.24,2.24,0,0,1-2.38-2.46A2.25,2.25,0,0,1,19.58,9,1.7,1.7,0,0,1,21,9.72Zm-2.77,2.31a1.32,1.32,0,0,0,1.37,1.41,1.4,1.4,0,0,0,0-2.8A1.32,1.32,0,0,0,18.31,11.39Z"/><path class="cls-1" d="M24.21,9.08l.08.53A1.36,1.36,0,0,1,25.6,9a1.75,1.75,0,0,1,1.19.44l-.52,1a1.14,1.14,0,0,0-.82-.3,1.07,1.07,0,0,0-1.15,1.17V13.7H23.15V9.08Z"/><path class="cls-1" d="M29.12,7.78V9.09H30.4v1H29.12v2a.57.57,0,0,0,.6.66,1.31,1.31,0,0,0,.55-.14l.32,1a2.56,2.56,0,0,1-.95.2A1.49,1.49,0,0,1,28,12.07v-2h-.86v-1H28V7.9Z"/><path class="cls-1" d="M32.23,11.8a1.23,1.23,0,0,0,1.38,1,1.91,1.91,0,0,0,1.24-.43l.73.72a2.84,2.84,0,0,1-2,.75A2.33,2.33,0,0,1,31,11.36,2.31,2.31,0,0,1,33.5,8.94c1.55,0,2.51,1,2.33,2.86Zm2.51-.95a1.06,1.06,0,0,0-1.2-.9,1.24,1.24,0,0,0-1.29.9Z"/><path class="cls-1" d="M40.69,13.11a2.38,2.38,0,0,1-1.78.73,2.29,2.29,0,0,1-2.46-2.45A2.29,2.29,0,0,1,38.91,9a2.19,2.19,0,0,1,1.67.68l-.72.76a1.4,1.4,0,0,0-.93-.37,1.3,1.3,0,0,0-1.33,1.37,1.26,1.26,0,0,0,1.31,1.35,1.39,1.39,0,0,0,1-.38Z"/><path class="cls-1" d="M42.34,7.14V9.71A1.71,1.71,0,0,1,43.78,9c1.31,0,1.89.89,1.89,2.25V13.7H44.53V11.28c0-.84-.44-1.2-1-1.2a1.18,1.18,0,0,0-1.14,1.27V13.7H41.19V7.14Z"/><path class="cls-1" d="M25.06,16.57a6.5,6.5,0,0,0-.55-.4,1.43,1.43,0,0,1-.69.57.72.72,0,0,0-.15-.16,1.08,1.08,0,0,0,.71-.64H23.7v-.19h.72a.92.92,0,0,0,0-.13v-.21h-.31a1.8,1.8,0,0,1-.22.32l-.19-.11a1.73,1.73,0,0,0,.39-.69l.21,0a2.29,2.29,0,0,1-.1.26h1v.19h-.52v.21a.88.88,0,0,1,0,.13h.62v.19H24.6l0,.07.64.39Zm-.85.1h2.09v1.4h-.23v-.12H24.43v.13h-.22Zm.22.19v.35h1.63v-.35Zm1.63.9v-.37H24.43v.37Zm.53-2.54v1.18H25.4V15.21Zm-.22.21h-.75v.76h.75Z"/><path class="cls-1" d="M27.81,15.94h-.6v-.16h.6V15.6h-.48v-.16h.48v-.18h-.56v-.16h.56v-.19H28v.19h.49v.16H28v.18h.44v.16H28v.18h.54v.16H28v.19h-.21Zm-.58,1.93a2,2,0,0,0,.3-.57l.19.08a2.4,2.4,0,0,1-.29.6Zm2.63-.76H27.46V17h2.17v-.23h-2v-.16h2v-.22H27.48v-.17h2.37Zm-.69.72c.17,0,.19,0,.21-.34a.54.54,0,0,0,.21.08c0,.37-.1.46-.4.46h-.77c-.37,0-.47-.06-.47-.3v-.46h.23v.46c0,.08,0,.1.25.1Zm-.58-.69a2,2,0,0,1,.47.37l-.15.13a2.07,2.07,0,0,0-.46-.38Zm.72-1.2h-.6v-.16h.6V15.6h-.48v-.16h.48v-.18h-.57v-.16h.57v-.19h.21v.19h.58v.16h-.58v.18H30v.16h-.53v.18h.64v.16h-.64v.19h-.21Zm.54,1.32a2.72,2.72,0,0,1,.38.63L30,18a3.08,3.08,0,0,0-.36-.64Z"/><path class="cls-1" d="M33.67,15.22v.21h-.8v.26h-.23v-.26h-1v.26h-.22v-.26h-.77v-.21h.77v-.29h.22v.29h1v-.29h.23v.29Zm-2.91.57h2.83v.66h-.22V16H31v.47h-.21ZM31,17.12h2.31v1h-.22v-.13H31.25v.14H31Zm.22.2v.43h1.87v-.43Zm1.85-1.1v.66H31.26v-.66Zm-.23.17H31.48v.32h1.39Z"/><path class="cls-1" d="M34.45,15.57a2.23,2.23,0,0,1-.3.4.91.91,0,0,0-.12-.2,2.13,2.13,0,0,0,.48-.83l.2.06a3.49,3.49,0,0,1-.15.36h.73v.22Zm.38,1.07h.49v.21h-.49v.76l.4-.21a1,1,0,0,0,0,.2,4.1,4.1,0,0,0-.71.43.91.91,0,0,0-.11-.19.32.32,0,0,0,.16-.27v-.71h-.5v-.21h.5v-.49h-.36v-.21h1v.21h-.41Zm.91-.87a3,3,0,0,0-.34-.64l.18-.08a2.67,2.67,0,0,1,.35.62Zm1.32.13v1.87c0,.13,0,.19-.12.23a1.64,1.64,0,0,1-.51,0,.62.62,0,0,0-.07-.21h.42c.06,0,.07,0,.07-.06v-.46H35.66v.77h-.21V15.91h.71v-1h.21v1h.68Zm-1.4.22v.39h1.19v-.39Zm1.19,1v-.39H35.66v.39Zm.31-2a5.38,5.38,0,0,1-.4.65l-.17-.08A4.16,4.16,0,0,0,37,15Z"/><path class="cls-1" d="M40.61,16.85H39.18v1.22h-.24V16.85H37.54v-.23h1.41V15.39H37.72v-.23h2.7v.23H39.18v1.23h1.43Zm-2.44-1.28a3.8,3.8,0,0,1,.34.79l-.22.07a4.47,4.47,0,0,0-.32-.81Zm1.41.82a5.25,5.25,0,0,0,.38-.84l.24.07a6.31,6.31,0,0,1-.43.83Z"/><path class="cls-1" d="M43.06,15.33a5.49,5.49,0,0,1,.92,1l-.2.14a2.9,2.9,0,0,0-.22-.3,16.1,16.1,0,0,0-2.33.17,1.7,1.7,0,0,0-.07-.22.8.8,0,0,0,.28-.21,6.39,6.39,0,0,0,.81-1l.22.1a7.28,7.28,0,0,1-.91,1L43.4,16a6.78,6.78,0,0,0-.52-.52Zm-1.62,1.31h2.18v1.43h-.24v-.18H41.67v.19h-.23Zm.23.22v.8h1.71v-.8Z"/><path class="cls-2" d="M11.33,18.76a7.43,7.43,0,0,1-7.42-7.42V3.91h7.42a7.42,7.42,0,0,1,6.15,3.27h4.38A11.33,11.33,0,0,0,11.33,0H0V11.33a11.33,11.33,0,0,0,21.81,4.3H17.37A7.41,7.41,0,0,1,11.33,18.76Z"/></g></g></svg>